<svg width="23" height="23" viewBox="0 0 23 23" fill="none" xmlns="http://www.w3.org/2000/svg">
<path opacity="0.1" fill-rule="evenodd" clip-rule="evenodd" d="M0.674133 11.7743C0.674133 5.62346 5.66039 0.637207 11.8112 0.637207C17.9621 0.637207 22.9484 5.62346 22.9484 11.7743C22.9484 17.9252 17.9621 22.9114 11.8112 22.9114C5.66039 22.9114 0.674133 17.9252 0.674133 11.7743Z" fill="white"/>
<path fill-rule="evenodd" clip-rule="evenodd" d="M11.4777 9.68957L11.5011 10.0749L11.1116 10.0278C9.69374 9.84687 8.4551 9.23342 7.40343 8.20315L6.88928 7.69195L6.75684 8.06945C6.4764 8.91097 6.65557 9.79968 7.23983 10.3974C7.55144 10.7277 7.48133 10.7749 6.94381 10.5783C6.75684 10.5154 6.59325 10.4682 6.57767 10.4918C6.52314 10.5468 6.7101 11.2625 6.85812 11.5456C7.06066 11.9389 7.47354 12.3242 7.92537 12.5523L8.30709 12.7332L7.85526 12.7411C7.41901 12.7411 7.40343 12.7489 7.45017 12.9141C7.60597 13.4253 8.2214 13.968 8.90693 14.2039L9.38992 14.3691L8.96925 14.6207C8.34604 14.9825 7.61376 15.187 6.88149 15.2027C6.53093 15.2106 6.24269 15.242 6.24269 15.2656C6.24269 15.3443 7.19309 15.7847 7.7462 15.9577C9.4055 16.4689 11.3764 16.2487 12.8566 15.3757C13.9082 14.7544 14.9599 13.5197 15.4507 12.3242C15.7155 11.6872 15.9804 10.5232 15.9804 9.96484C15.9804 9.60306 16.0038 9.55588 16.44 9.12332C16.6971 8.87165 16.9386 8.59638 16.9853 8.51774C17.0632 8.36831 17.0555 8.36831 16.6582 8.50201C15.996 8.73795 15.9025 8.70649 16.2297 8.35258C16.4712 8.10091 16.7594 7.64476 16.7594 7.51106C16.7594 7.48747 16.6426 7.52679 16.5101 7.59757C16.3699 7.67622 16.0583 7.79419 15.8246 7.86497L15.4039 7.99867L15.0222 7.73913C14.8119 7.59757 14.5159 7.44028 14.3601 7.39309C13.9628 7.28298 13.3551 7.29871 12.9968 7.42455C12.023 7.77846 11.4076 8.69076 11.4777 9.68957Z" fill="white"/>
</svg>
