<svg width="23" height="23" viewBox="0 0 23 23" fill="none" xmlns="http://www.w3.org/2000/svg">
<path opacity="0.1" fill-rule="evenodd" clip-rule="evenodd" d="M0.0854645 11.7743C0.0854645 5.62346 5.07172 0.637207 11.2226 0.637207C17.3734 0.637207 22.3597 5.62346 22.3597 11.7743C22.3597 17.9252 17.3734 22.9114 11.2226 22.9114C5.07172 22.9114 0.0854645 17.9252 0.0854645 11.7743Z" fill="white"/>
<path fill-rule="evenodd" clip-rule="evenodd" d="M15.8638 7.94565C16.375 8.08591 16.7775 8.4992 16.9141 9.02404C17.1624 9.97525 17.1624 11.96 17.1624 11.96C17.1624 11.96 17.1624 13.9446 16.9141 14.8959C16.7775 15.4207 16.375 15.834 15.8638 15.9743C14.9375 16.2292 11.2226 16.2292 11.2226 16.2292C11.2226 16.2292 7.50773 16.2292 6.58133 15.9743C6.07017 15.834 5.66761 15.4207 5.531 14.8959C5.28281 13.9446 5.28281 11.96 5.28281 11.96C5.28281 11.96 5.28281 9.97525 5.531 9.02404C5.66761 8.4992 6.07017 8.08591 6.58133 7.94565C7.50773 7.69073 11.2226 7.69073 11.2226 7.69073C11.2226 7.69073 14.9375 7.69073 15.8638 7.94565ZM10.1089 10.2894V14.0017L13.0788 12.1456L10.1089 10.2894Z" fill="white"/>
</svg>
